<svg xmlns="http://www.w3.org/2000/svg"><symbol viewBox="0 0 103 16" id="icon-brand-logo"><title>icon-brand-logo</title><g fill="#2E3432"><path d="M70.283 7.77c-.837-.69-1.992-1.47-3.147-1.47-2.22 0-3.872 1.286-3.872 3.63 0 2.415 1.404 3.77 3.827 3.77 1.32 0 2.49-.62 3.2-1.677V7.77zm.317 7.862v-1.47h-.045C69.695 15.31 68.38 16 66.887 16 63.672 16 61 13.563 61 10.275 61 6.85 63.423 4 66.91 4c2.422 0 3.328 1.494 5.32 2.3.227.09.498.09.725.045-.227.345-.408.528-.408.896v7.66c0 .3.09.487.453.74h-2.4zm6.155-3.237c.73.726 1.867 1.407 3.006 1.407 2.28 0 3.97-1.385 3.97-3.626 0-2.176-1.57-3.45-3.757-3.45-1.822 0-2.596.922-3.21 1.23v4.44zm0-12.395v5.714c.934-.9 2.095-1.187 3.416-1.187 3.12 0 5.83 2.264 5.83 5.54C86 13.67 83.34 16 79.81 16c-2.027 0-2.87-.813-4.463-1.868-.365-.242-.706-.374-1.253-.374.39-.373.39-.813.39-1.32V.99c0-.35-.046-.702-.48-.988h2.756zM60 16h-9c.338-.27.43-.517.43-.9V.9c0-.383-.092-.63-.43-.9h3.293c-.338.27-.428.517-.428.9v12.808h4.6c.588 0 1.196-.045 1.535-.584V16M43.446 8.92c-.352-1.68-1.828-2.805-3.5-2.805-1.85 0-3.172 1.034-3.722 2.805h7.222zm0 7.01c-.264-.23-.286-.367-.617-.367-.58 0-1.83.437-2.87.437-3.21 0-5.96-2.598-5.96-5.816C34 6.736 36.64 4 39.856 4c3.72 0 6.033 3.127 6.033 6.575 0 .16.044.298.11.46h-9.798c.55 2 2.114 2.85 4.095 2.85 1.145 0 2.312-.368 3.15-1.172v3.218zM29.444 1.01c0-.358-.042-.718-.444-1.01h2.556v14.99c0 .358.043.718.444 1.01h-3c.402-.292.444-.652.444-1.01V1.01M28 5.163V7.53c-.255-.31-.617-.333-.98-.333h-1.127v7.808c0 .353.043.707.448.995h-3.02c.41-.288.45-.642.45-.995V7.197H22L25.83 2v3.163H28m-7 0V7.53c-.255-.31-.617-.333-.98-.333h-1.126v7.808c0 .353.042.707.447.995h-3.02c.41-.288.45-.642.45-.995V7.197H15L18.83 2v3.163H21m-7-2.687C14 3.31 13.333 4 12.5 4S11 3.31 11 2.476C11 1.666 11.667 1 12.5 1s1.5.667 1.5 1.476M12.556 5v9.99c0 .36.043.718.444 1.01h-3c.4-.292.444-.65.444-1.01V6.033c0-.382-.043-.74-.444-1.033h2.556M9 16H0c.338-.27.43-.517.43-.9V.9C.43.516.337.27 0 0h3.293c-.338.27-.428.517-.428.9v12.808h4.6c.588 0 1.197-.045 1.535-.584V16m91.473-14.987c0-.36-.045-.72-.473-1.013h2.724v15.02c0 .36.045.72.473 1.012H100c.428-.293.473-.653.473-1.013V1.01"/><path d="M96.66 8.82c-.36-1.645-1.87-2.75-3.58-2.75-1.892 0-3.243 1.015-3.806 2.75h7.386zm0 6.866c-.27-.225-.293-.36-.63-.36-.586 0-1.87.428-2.928.428-3.287 0-6.102-2.545-6.102-5.697C87 6.68 89.702 4 92.99 4c3.805 0 6.17 3.062 6.17 6.44 0 .157.044.292.112.45h-10.02c.563 1.96 2.16 2.792 4.188 2.792 1.17 0 2.364-.36 3.22-1.148v3.152z"/></g></symbol><symbol viewBox="0 0 16 16" id="icon-fill-home"><title>icon-fill-home</title><path d="M7.984 0L0 7.985l.5.5L7.984 1l7.484 7.484.5-.498v-.002zm-6 9v7h4v-5h4v5h4V9l-5.99-6.01L1.984 9zm.75.31l5.26-5.258 5.24 5.258v5.94h-2.5v-5h-5.5v5h-2.5V9.31z" fill="inherit"/></symbol><symbol viewBox="0 0 16 16" id="icon-fill-profile"><title>icon-fill-profile</title><path d="M13.846 12.344c-.012-.002-.022-.01-.027-.02-.36-.905-.68-1.504-.85-1.604-.83-.477-1.73-.834-2.67-1.06l-.05-.012-.04.03c-.55.44-1.36.693-2.22.693-.86 0-1.67-.25-2.22-.69l-.04-.03-.05.01c-.95.23-1.85.59-2.67 1.06-.17.1-.49.7-.85 1.61-.01.01-.02.02-.03.02-.01 0-.02 0-.03-.01C1.18 11.07.69 9.57.69 8 .69 3.97 3.97.69 8 .69c4.03 0 7.31 3.28 7.31 7.31 0 1.567-.496 3.065-1.433 4.33-.007.01-.014.013-.03.014m-.527.65C11.937 14.466 10 15.31 8 15.31c-2.01 0-3.955-.852-5.338-2.335-.01-.01-.012-.023-.006-.035.27-.647.644-1.463.77-1.65.004-.005.008-.01.013-.01.66-.378 1.38-.674 2.14-.88.01-.005.02 0 .02.004.65.423 1.49.657 2.39.657.89 0 1.74-.23 2.39-.65 0 0 .01-.01.02 0 .76.21 1.48.51 2.14.88l.01.01c.15.22.54 1.13.752 1.67.002.01 0 .03-.01.04M8 0C3.59 0 0 3.588 0 8c0 2.077.8 4.05 2.247 5.55C3.777 15.13 5.82 16 8 16c4.41 0 8-3.59 8-8s-3.59-8-8-8m2.244 5.426C10.05 6.866 9.28 8.32 7.997 8.32c-1.3 0-2.066-1.45-2.246-2.887-.1-.816.13-1.554.63-2.08.41-.433.99-.673 1.62-.673.65 0 1.24.24 1.66.682.5.52.71 1.254.6 2.064M8 2c-.84 0-1.613.32-2.17.903-.646.672-.93 1.598-.8 2.608C5.283 7.6 6.48 9 7.99 9c1.518 0 2.683-1.37 2.968-3.488.138-1.006-.135-1.93-.77-2.6C9.64 2.325 8.86 2 8 2" fill="inherit"/></symbol><symbol viewBox="0 0 24 24" id="icon-outline-bag"><title>icon-outline-bag</title><path d="M20.98 19.612c0 1.852-1.508 3.357-3.36 3.357H6.36C4.506 22.97 3 21.46 3 19.61v-7.225c0-1.85 1.507-3.357 3.36-3.357h.756v1.087h1V9.03h7.443v1.087h1V9.03h1.06c1.85 0 3.36 1.506 3.36 3.357v7.225zM8.115 4.722C8.115 2.67 9.785 1 11.835 1c2.054 0 3.724 1.67 3.724 3.72v3.31H8.11V4.72zM17.62 8.03h-1.06V4.72c0-2.6-2.12-4.72-4.724-4.72-2.603 0-4.72 2.118-4.72 4.72v3.31h-.758C3.955 8.03 2 9.985 2 12.387v7.225c0 2.402 1.956 4.357 4.36 4.357h11.26c2.404 0 4.36-1.96 4.36-4.36v-7.23c0-2.41-1.956-4.36-4.36-4.36z" fill="inherit"/></symbol><symbol viewBox="0 0 25 24" id="icon-outline-chat"><title>icon-outline-chat</title><path d="M5.54 21.936l3.833-3.77h13.4c.677 0 1.225-.548 1.225-1.224V3.226c0-.676-.548-1.224-1.224-1.224H2.226c-.676 0-1.224.548-1.224 1.224v13.716c0 .676.548 1.224 1.224 1.224H5.35v3.69c0 .03.01.058.03.08.044.043.115.043.16 0zm4.243-2.768L6.24 22.65c-.437.43-1.142.425-1.573-.013-.205-.208-.32-.488-.32-.78v-2.69h-2.12C.997 19.167 0 18.172 0 16.943V3.226C0 1.996.996 1 2.226 1h20.548C24.004 1 25 1.996 25 3.226v13.716c0 1.23-.996 2.226-2.226 2.226H9.784zm1.582-5.844c0-.375.31-.675.696-.675.39 0 .7.3.7.67 0 .37-.31.67-.69.67-.38 0-.69-.3-.69-.68zm.21-1.49l-.11-1.952c.1.01.187.01.286.01 1.25 0 2.2-.47 2.2-1.49 0-.858-.66-1.458-1.57-1.458-.45 0-.98.15-1.38.418v-1.03c.39-.202.91-.332 1.43-.332C13.88 6 15 6.997 15 8.338c0 1.33-1.094 2.252-2.52 2.348v1.148h-.905z" fill="inherit"/></symbol><symbol viewBox="0 0 24 24" id="icon-outline-favourite"><title>icon-outline-favourite</title><path d="M21.45 11.588l-9.493 9.48-.03-.03-9.462-9.45C1.512 10.638.99 9.374.99 8.03c0-1.343.522-2.607 1.475-3.558.955-.954 2.225-1.477 3.575-1.477s2.62.523 3.57 1.475l2.347 2.356L14.3 4.472c.954-.954 2.223-1.477 3.573-1.477s2.62.523 3.576 1.476c.95.96 1.47 2.22 1.47 3.56 0 1.35-.53 2.61-1.48 3.56M17.87 2c-1.613 0-3.13.628-4.27 1.767L11.958 5.42l-.03-.03-1.618-1.624C9.165 2.626 7.65 2 6.04 2c-1.613 0-3.13.628-4.27 1.767C.63 4.904 0 6.417 0 8.03c0 1.612.63 3.126 1.77 4.262l10.187 10.176 10.188-10.175c1.14-1.138 1.77-2.652 1.77-4.263 0-1.61-.63-3.125-1.77-4.263C21.005 2.627 19.487 2 17.873 2" fill="inherit"/></symbol><symbol viewBox="0 0 24 24" id="icon-outline-profile"><title>icon-outline-profile</title><path d="M20.683 18.44c-.018-.004-.033-.016-.04-.032-.533-1.35-1.004-2.245-1.26-2.395-1.232-.713-2.574-1.246-3.99-1.585l-.07-.016-.056.044c-.82.66-2.03 1.036-3.315 1.036-1.288 0-2.497-.378-3.317-1.036l-.056-.043-.07.015c-1.42.338-2.76.872-3.99 1.585-.26.148-.73 1.042-1.26 2.396-.01.01-.03.02-.04.03h-.01c-.02 0-.03-.01-.04-.02-1.4-1.89-2.14-4.13-2.14-6.47 0-6.03 4.89-10.92 10.92-10.92 6.02 0 10.91 4.89 10.91 10.92 0 2.34-.74 4.58-2.14 6.47-.01.01-.02.01-.05.02m-.79.97c-2.07 2.19-4.96 3.46-7.95 3.46-3-.01-5.91-1.28-7.97-3.49-.02-.02-.02-.04-.01-.06.4-.97.96-2.19 1.15-2.47 0-.01.01-.01.01-.02.99-.57 2.07-1.01 3.2-1.32.015-.01.03 0 .04.01.97.63 2.24.98 3.57.98 1.333 0 2.6-.35 3.57-.98.012-.01.027-.01.04-.01 1.137.302 2.214.75 3.204 1.31.01 0 .014.004.02.01.23.33.813 1.68 1.13 2.49.004.02 0 .04-.01.053M11.95 0C5.363 0 0 5.36 0 11.95c0 3.103 1.193 6.05 3.357 8.29 2.286 2.36 5.338 3.66 8.594 3.66 6.59 0 11.95-5.36 11.95-11.95C23.9 5.362 18.54 0 11.95 0m3.474 8.198c-.276 2.186-1.366 4.39-3.18 4.39-1.843 0-2.925-2.2-3.18-4.38-.142-1.237.172-2.357.88-3.153.59-.66 1.407-1.024 2.3-1.024.92 0 1.752.37 2.34 1.04.696.79.995 1.91.84 3.13M12.244 3c-1.192 0-2.283.486-3.07 1.37-.907 1.02-1.31 2.425-1.133 3.957.37 3.166 2.06 5.294 4.21 5.294s3.8-2.07 4.2-5.29c.2-1.52-.19-2.93-1.09-3.94-.79-.9-1.89-1.39-3.11-1.39" fill="inherit"/></symbol><symbol viewBox="0 0 24 24" id="icon-outline-search"><title>icon-outline-search</title><path d="M11 2C5.488 2 1 6.486 1 12c0 5.515 4.487 10 10 10 5.515 0 10.002-4.485 10.002-10 0-5.514-4.486-10-10-10M11 23C4.935 23 0 18.067 0 12 0 5.935 4.935 1 11 1c6.067 0 11.002 4.935 11.002 11 0 6.066-4.935 11-11 11m12.53.184c-.128 0-.256-.05-.354-.146l-3.89-3.89c-.194-.196-.194-.513 0-.708.196-.195.513-.195.708 0l3.89 3.89c.195.196.195.512 0 .708-.098.097-.226.146-.354.146M3.034 11.854c-.012 0-.023 0-.035-.002-.28-.02-.49-.258-.47-.533.3-4.38 3.97-7.81 8.37-7.81.27 0 .5.22.5.5s-.23.5-.5.5c-3.87 0-7.11 3.02-7.37 6.87-.02.26-.24.46-.5.46" fill="inherit"/></symbol><symbol viewBox="0 0 24 24" id="icon-outline-store"><title>icon-outline-store</title><path d="M7.58 19.656h2.23v-1H7.58zm0 2.156h2.23v-1H7.58zM19.53 9.265c-.59 0-1.043-.153-1.35-.454-.317-.31-.458-.74-.458-1.4V4.27h.508v.42h2.266v.47H18.23v2.25c0 .533.1.85.346 1.08.214.203.543.31.953.31.26 0 .64-.047.99-.27l.07-.047.3.36-.09.06c-.36.24-.8.364-1.27.364zm-2.392-.048h-.652l-1.583-1.882-1.58 1.882H12.8V9.08l.023-.042 1.76-2.086-1.855-2.205h.632l.03.035 1.513 1.79 1.55-1.834h.633l-1.862 2.217 1.914 2.262zM8.624 6.683h3.433c-.082-.962-.772-1.607-1.72-1.607-.95 0-1.605.615-1.713 1.607zm1.714 2.582c-.648 0-1.207-.22-1.616-.64-.413-.422-.63-1.003-.63-1.678 0-1.4.9-2.34 2.246-2.34 1.326 0 2.252.96 2.252 2.334v.21H8.618c.08 1 .754 1.65 1.72 1.65.77 0 1.295-.3 1.605-.93l.03-.05h.535l-.06.14c-.352.82-1.14 1.31-2.11 1.31zM7.45 9.217h-.508V6.5c0-.534-.103-.847-.354-1.08-.21-.195-.53-.302-.93-.31-.39.002-.72.075-.983.22-.01.004-.042.023-.042.023-.712.436-.68 1.194-.68 1.202v2.662h-.506V4.854h.506v.1l-.005.364c.248-.283.76-.676 1.69-.676.432 0 .793.084 1.074.25.105.062.2.132.278.21.24.236.38.54.434.957l.01.09c.012.12.017.23.017.35v2.71zM23.416 0c.276 0 .5.224.5.5v22.958c0 .276-.224.5-.5.5h-5.69v-6.542h-5.58v5.506h.003v1.036h-1.01v-6.54H6.26v5.504h.002v1.036H.5c-.276 0-.5-.224-.5-.5V.5C0 .224.224 0 .5 0h22.916zM1 22.958h4.265v-5.54H1v5.54zm5.265-6.54h11.46V14H6.265v2.417zm12.46 6.54h4.19v-5.54h-4.19v5.54zm4.19-6.54V1H1v15.417h4.265V13.5c0-.276.223-.5.5-.5h12.46c.276 0 .5.224.5.5v2.917h4.19z" fill="inherit"/></symbol><symbol viewBox="0 0 12 6" id="icon-ui-chevron"><title>icon-ui-chevron</title><path d="M2.287.238L5.243 3.32v-.003l.22.232c.15.15.34.22.537.22s.388-.08.536-.23l.22-.23L9.714.23c.296-.307.77-.307 1.065 0 .29.31.29.804 0 1.113L6.53 5.77C6.388 5.922 6.192 6 6 6c-.197 0-.388-.07-.536-.225L1.222 1.35c-.296-.31-.296-.804 0-1.112.295-.31.77-.31 1.065 0" fill="inherit"/></symbol></svg>