<?xml version="1.0" encoding="UTF-8"?>
<svg width="25px" height="25px" viewBox="0 0 25 25" version="1.1" xmlns="http://www.w3.org/2000/svg" xmlns:xlink="http://www.w3.org/1999/xlink">
    <g id="Symbols" stroke="none" stroke-width="1" fill="none" fill-rule="evenodd">
        <g id="Back-To-Next_XS" transform="translate(-15.000000, -8.000000)" fill="#FFFFFF" fill-rule="nonzero">
            <g id="Back-Arrow" transform="translate(15.000000, 8.000000)">
                <g id="Arrow-White" transform="translate(12.500000, 12.500000) rotate(90.000000) translate(-12.500000, -12.500000) translate(7.000000, 6.000000)">
                    <g id="R/Button/Arrow-Button/Black-Arrow" transform="translate(5.888889, 6.555555) rotate(90.000000) translate(-5.888889, -6.555555) translate(-0.111111, 1.555555)">
                        <path d="M6.63401461,0.459375202 C6.93259344,0.172280171 7.40737592,0.181589631 7.69447095,0.480168463 L7.69447095,0.480168463 L11.5265467,4.46591316 C11.5557176,4.49467481 11.5825437,4.52580848 11.606712,4.55900144 C11.6149058,4.57021531 11.6224663,4.58121801 11.6297005,4.59237012 C11.6416161,4.6107583 11.6531604,4.63040521 11.6638105,4.65059696 C11.6705101,4.66331169 11.6764365,4.67538101 11.682019,4.68756871 C11.6919148,4.70903556 11.7011798,4.73208655 11.7093018,4.75566965 C11.7128584,4.76622196 11.7159776,4.77598236 11.718892,4.78579044 C11.7390898,4.85322121 11.75,4.9253365 11.75,5 C11.75,5.0746635 11.7390898,5.14677879 11.7187768,5.2148386 C11.7159776,5.22401764 11.7128584,5.23377804 11.7095345,5.24348405 C11.7011798,5.26791345 11.6919148,5.29096444 11.681573,5.31341712 C11.6764365,5.32461899 11.6705101,5.33668831 11.6642399,5.34862469 C11.6531604,5.36959479 11.6416161,5.3892417 11.6292301,5.40829104 C11.6040959,5.44710142 11.574404,5.48470117 11.5406248,5.51983154 L11.606712,5.44099856 C11.5825437,5.47419152 11.5557176,5.50532519 11.5265467,5.53408684 L7.69447095,9.51983154 C7.40737592,9.81841037 6.93259344,9.82771983 6.63401461,9.5406248 C6.33543578,9.25352977 6.32612632,8.77874729 6.61322135,8.48016846 L6.61322135,8.48016846 L9.238,5.7499991 L1,5.75 C0.620304234,5.75 0.306509039,5.46784612 0.256846616,5.10177056 L0.25,5 C0.25,4.58578644 0.585786438,4.25 1,4.25 L1,4.25 L9.238,4.2499991 L6.61322135,1.51983154 C6.35222587,1.24839624 6.33619278,0.83133809 6.55976135,0.542053857 Z" id="Arrow"></path>
                    </g>
                </g>
                <path d="M12.5,24.5 C19.127417,24.5 24.5,19.127417 24.5,12.5 C24.5,5.872583 19.127417,0.5 12.5,0.5 C5.872583,0.5 0.5,5.872583 0.5,12.5 C0.5,19.127417 5.872583,24.5 12.5,24.5 Z M12.5,23.5 C6.42486775,23.5 1.5,18.5751322 1.5,12.5 C1.5,6.42486775 6.42486775,1.5 12.5,1.5 C18.5751322,1.5 23.5,6.42486775 23.5,12.5 C23.5,18.5751322 18.5751322,23.5 12.5,23.5 Z" id="Circle"></path>
            </g>
        </g>
    </g>
</svg>