<?xml version="1.0" encoding="UTF-8"?>
<svg width="75px" height="13px" viewBox="0 0 75 13" version="1.1" xmlns="http://www.w3.org/2000/svg" xmlns:xlink="http://www.w3.org/1999/xlink">
    <g id="Browse-&amp;-Shop" stroke="none" stroke-width="1" fill="none" fill-rule="evenodd">
        <g id="Shopping-Bag-1024_Shared-Bag_Next" transform="translate(-215.000000, -589.000000)" fill="#2E3432">
            <g id="R/Generic/Icons-Label/Logo" transform="translate(215.000000, 589.000000)">
                <g id="Group-2">
                    <g id="Group">
                        <path d="M72.9693853,1.44279946 C72.9693853,1.17993898 72.9366647,0.917078496 72.6245179,0.703504354 L74.6122633,0.703504354 L74.6122633,11.66109 C74.6122633,11.9239505 74.6451209,12.186811 74.9574046,12.4002482 L72.6245179,12.4002482 C72.9366647,12.186811 72.9693853,11.9239505 72.9693853,11.66109 L72.9693853,1.44279946" id="Fill-14"></path>
                        <path d="M70.0450625,7.6033182 C69.782202,6.40401725 68.6814737,5.59900702 67.4330233,5.59900702 C66.0530058,5.59900702 65.0674159,6.33830213 64.6566964,7.6033182 L70.0450625,7.6033182 Z M70.0450625,12.6139592 C69.8479171,12.4495345 69.8313514,12.3510988 69.5850566,12.3510988 C69.1580452,12.3510988 68.2217417,12.6632456 67.4494521,12.6632456 C65.0508502,12.6632456 62.9972527,10.8067934 62.9972527,8.50690111 C62.9972527,6.04272099 64.9688432,4.08769616 67.3671713,4.08769616 C70.1436351,4.08769616 71.8685202,6.32201026 71.8685202,8.78619037 C71.8685202,8.90105492 71.9015146,8.9994907 71.9506641,9.11449216 L64.6401307,9.11449216 C65.0508502,10.5439329 66.2172936,11.1517978 67.6958838,11.1517978 C68.5500435,11.1517978 69.4207688,10.8889373 70.0450625,10.3140669 L70.0450625,12.6139592 L70.0450625,12.6139592 Z" id="Fill-13"></path>
                        <path d="M50.8674736,6.78187919 C50.2597456,6.28887888 49.4217409,5.73043726 48.5838732,5.73043726 C46.9739896,5.73043726 45.7746887,6.65044895 45.7746887,8.32604762 C45.7746887,10.0512064 46.793273,11.0203676 48.5510156,11.0203676 C49.5038848,11.0203676 50.3581814,10.5769274 50.8674736,9.8209297 L50.8674736,6.78187919 Z M51.0973396,12.4002482 L51.0973396,11.3488063 L51.0644821,11.3488063 C50.4403253,12.1702453 49.4874561,12.6632456 48.4032935,12.6632456 C46.0704067,12.6632456 44.1318106,10.921658 44.1318106,8.57234241 C44.1318106,6.12472799 45.889827,4.08769616 48.4197223,4.08769616 C50.1774648,4.08769616 50.834616,5.15556687 52.2802118,5.73043726 C52.4446365,5.79628929 52.6416449,5.79628929 52.8059327,5.76343173 C52.6416449,6.00972653 52.5102147,6.14115677 52.5102147,6.40401725 L52.5102147,11.8745272 C52.5102147,12.0882383 52.5759298,12.2196685 52.8387903,12.4002482 L51.0973396,12.4002482 L51.0973396,12.4002482 Z" id="Fill-11"></path>
                        <path d="M55.6263436,9.96892563 C56.1520645,10.5110754 56.9735035,11.0203676 57.7948056,11.0203676 C59.4376837,11.0203676 60.6535503,9.98535441 60.6535503,8.30961884 C60.6535503,6.68330651 59.5198276,5.73043726 57.9426647,5.73043726 C56.6284992,5.73043726 56.0699206,6.42044603 55.6263436,6.65044895 L55.6263436,9.96892563 Z M55.6263436,0.703504354 L55.6263436,4.97471338 C56.2999236,4.3012703 57.1377913,4.08769616 58.0906606,4.08769616 C60.3412666,4.08769616 62.2961545,5.7797236 62.2961545,8.22747494 C62.2961545,10.9217949 60.374261,12.6632456 57.8278001,12.6632456 C56.3656387,12.6632456 55.7577738,12.0552438 54.608033,11.2666624 C54.3451725,11.0860827 54.0986039,10.9873731 53.7041763,10.9873731 C53.9834656,10.7082207 53.9834656,10.3796451 53.9834656,10.0017832 L53.9834656,1.44279946 C53.9834656,1.17993898 53.9507449,0.917078496 53.6385981,0.703504354 L55.6263436,0.703504354 L55.6263436,0.703504354 Z" id="Fill-12"></path>
                        <path d="M43.9183734,12.4003851 L37.3635639,12.4003851 C37.6099957,12.2032397 37.6757108,12.0225231 37.6757108,11.743097 L37.6757108,1.36065556 C37.6757108,1.0813663 37.6099957,0.900649716 37.3635639,0.703504354 L39.7621658,0.703504354 C39.5155972,0.900649716 39.4498821,1.0813663 39.4498821,1.36065556 L39.4498821,10.7246495 L42.8012164,10.7246495 C43.2283646,10.7246495 43.6718048,10.6919289 43.9183734,10.2976381 L43.9183734,12.4003851" id="Fill-10"></path>
                        <path d="M31.4271612,7.6033182 C31.1643007,6.40401725 30.0635724,5.59900702 28.8152589,5.59900702 C27.4351045,5.59900702 26.4495146,6.33830213 26.0387951,7.6033182 L31.4271612,7.6033182 Z M31.4271612,12.6139592 C31.2300158,12.4495345 31.213587,12.3510988 30.9671553,12.3510988 C30.5401439,12.3510988 29.6037035,12.6632456 28.8315508,12.6632456 C26.4329489,12.6632456 24.3794883,10.8067934 24.3794883,8.50690111 C24.3794883,6.04272099 26.3509419,4.08769616 28.74927,4.08769616 C31.5257338,4.08769616 33.2506188,6.32201026 33.2506188,8.78619037 C33.2506188,8.90105492 33.2836133,8.9994907 33.3327627,9.11449216 L26.0222294,9.11449216 C26.4329489,10.5439329 27.5993923,11.1517978 29.0779825,11.1517978 C29.9321422,11.1517978 30.8028675,10.8889373 31.4271612,10.3140669 L31.4271612,12.6139592 L31.4271612,12.6139592 Z" id="Fill-9"></path>
                        <path d="M21.6195901,1.44279946 C21.6195901,1.17993898 21.5870064,0.917078496 21.2745857,0.703504354 L23.2624681,0.703504354 L23.2624681,11.66109 C23.2624681,11.9239505 23.2954626,12.186811 23.6074725,12.4002482 L21.2745857,12.4002482 C21.5870064,12.186811 21.6195901,11.9239505 21.6195901,11.66109 L21.6195901,1.44279946" id="Fill-8"></path>
                        <path d="M20.5024331,4.35055664 L20.5024331,6.10829921 C20.3054246,5.87829628 20.0261354,5.8618675 19.7467092,5.8618675 L18.8759838,5.8618675 L18.8759838,11.6609531 C18.8759838,11.9238136 18.9088414,12.186674 19.2211251,12.4003851 L16.8882384,12.4003851 C17.2005221,12.186674 17.2332427,11.9238136 17.2332427,11.6609531 L17.2332427,5.8618675 L15.8697909,5.8618675 L18.8268344,2.00124108 L18.8268344,4.35055664 L20.5024331,4.35055664" id="Fill-6"></path>
                        <path d="M15.1137932,4.35055664 L15.1137932,6.10829921 C14.9166478,5.87829628 14.6374955,5.8618675 14.3580693,5.8618675 L13.4874809,5.8618675 L13.4874809,11.6609531 C13.4874809,11.9238136 13.5202015,12.186674 13.8324853,12.4003851 L11.4995985,12.4003851 C11.8117453,12.186674 11.8446029,11.9238136 11.8446029,11.6609531 L11.8446029,5.8618675 L10.481151,5.8618675 L13.4381945,2.00124108 L13.4381945,4.35055664 L15.1137932,4.35055664" id="Fill-5"></path>
                        <path d="M9.38603591,4.35055664 L9.38603591,11.6609531 C9.38603591,11.9239505 9.41889347,12.186811 9.73104029,12.4002482 L7.39815351,12.4002482 C7.71030033,12.186811 7.74315789,11.9239505 7.74315789,11.6609531 L7.74315789,5.10614362 C7.74315789,4.82685436 7.71030033,4.56399387 7.39815351,4.35055664 L9.38603591,4.35055664" id="Path"></path>
                        <path d="M6.55480946,12.4003851 L6.54587495e-13,12.4003851 C0.246431702,12.2032397 0.312146823,12.0225231 0.312146823,11.743097 L0.312146823,1.36065556 C0.312146823,1.0813663 0.246431702,0.900649716 6.54587495e-13,0.703504354 L2.39846499,0.703504354 C2.15203329,0.900649716 2.08631817,1.0813663 2.08631817,1.36065556 L2.08631817,10.7246495 L5.43765241,10.7246495 C5.8648007,10.7246495 6.30837776,10.6919289 6.55480946,10.2976381 L6.55480946,12.4003851" id="Fill-1"></path>
                    </g>
                    <path d="M9.59961005,2.28053034 C9.59961005,2.85553765 9.1396042,3.33197227 8.5645969,3.33197227 C7.98958959,3.33197227 7.52958375,2.85553765 7.52958375,2.28053034 C7.52958375,1.72195182 7.98958959,1.26194597 8.5645969,1.26194597 C9.1396042,1.26194597 9.59961005,1.72195182 9.59961005,2.28053034" id="Path"></path>
                </g>
            </g>
        </g>
    </g>
</svg>