<?xml version="1.0" encoding="UTF-8"?>
<svg width="85px" height="24px" viewBox="0 0 85 24" version="1.1" xmlns="http://www.w3.org/2000/svg" xmlns:xlink="http://www.w3.org/1999/xlink">
    <g id="Designs" stroke="none" stroke-width="1" fill="none" fill-rule="evenodd">
        <g id="HP-0320__Banner--5" transform="translate(-43.000000, -729.000000)" fill="#000">
            <g id="Group" transform="translate(0.000000, 696.000000)">
                <g id="Next-Logo" transform="translate(43.000000, 33.000000)">
                    <g id="Group-13" transform="translate(0.000000, 0.238080)">
                        <path d="M78.36144,23.76168 C75.57576,23.76168 73.44168,23.05248 72.01992,21.65376 C70.54896,20.20752 69.89304,18.16824 69.89304,15.04176 L69.89304,-1.88293825e-13 L71.42472,-1.88293825e-13 L71.42472,2.08176 L82.66176,2.08176 L82.66176,3.41376 L71.42472,3.41376 L71.42472,15.04176 C71.42472,17.84808 71.9664,19.50312 73.2948,20.75424 C74.44056,21.84936 76.19376,22.42944 78.36144,22.42944 C79.75344,22.42944 81.74664,22.17816 83.54616,21.02208 L84.39648,22.05576 C82.71504,23.1732 80.63904,23.76168 78.36144,23.76168" id="Fill-1"></path>
                        <path d="M33.52848,2.93736 C28.56672,2.93736 25.15008,6.19344 24.61248,11.43528 L24.56304,11.91744 L42.50712,11.91744 L42.46968,11.4456 C42.06888,6.35664 38.4756,2.93736 33.52848,2.93736 M33.52848,23.76192 C30.48192,23.76192 27.858,22.7136 25.93992,20.73024 C24.00216,18.72648 22.9776,15.96096 22.9776,12.73392 C22.9776,6.07728 27.21768,1.60536 33.52848,1.60536 C39.75552,1.60536 44.10456,6.17088 44.10456,12.70776 L44.10456,13.24848 L24.55272,13.24848 L24.58752,13.71864 C24.9792,19.01016 28.48896,22.42944 33.52848,22.42944 C37.51344,22.42944 40.24104,20.82768 41.85792,17.5356 L43.44888,17.5356 C41.7864,21.44712 38.12352,23.76192 33.52848,23.76192" id="Fill-2"></path>
                        <polyline id="Fill-3" points="65.79192 2.08224 63.95664 2.08224 56.07624 11.44728 48.2256 2.12592 46.39632 2.12592 55.14432 12.55488 46.17912 23.20848 46.17912 23.2848 48.03624 23.2848 56.07624 13.68672 64.1232 23.2848 66.04248 23.2848 57.00792 12.57384 65.79192 2.08224"></polyline>
                        <path d="M18.7848,10.53744 C18.7848,10.48368 18.7848,10.42608 18.78456,10.3668 C18.78432,9.79776 18.76176,9.26544 18.71688,8.76576 C18.71376,8.73096 18.71016,8.69712 18.7068,8.66256 C18.6936,8.52744 18.67944,8.39424 18.66288,8.26392 C18.66,8.24208 18.65712,8.22072 18.65448,8.19912 C18.3996,6.2472 17.75784,4.83072 16.65768,3.74928 C16.28136,3.37896 15.85344,3.05856 15.37848,2.7852 C14.17272,2.06688 12.54072,1.6068 10.32984,1.6068 C3.53568,1.6068 1.46544,6.07368 1.46544,6.07368 C1.48344,4.86048 1.50888,2.6568 1.50888,2.6568 L1.79412041e-13,2.6568 L1.79412041e-13,23.2848 L1.50888,23.2848 L1.50888,11.322 L1.51656,10.61784 C1.51656,10.61784 1.30248,6.5544 5.022,4.2672 C5.05752,4.2456 5.09088,4.22256 5.12712,4.2012 C5.12712,4.2012 5.26776,4.12368 5.33616,4.0824 C6.5808,3.39672 8.2296,2.94576 10.41312,2.93736 C12.5364,2.97696 14.23416,3.5544 15.35712,4.61256 C16.704,5.86416 17.25336,7.51896 17.25336,10.32528 L17.25336,21.95352 L17.25312,23.2848 L18.7848,23.2848 L18.7848,11.77344 L18.7848,10.53744 Z" id="Fill-5"></path>
                    </g>
                </g>
            </g>
        </g>
    </g>
</svg>