<?xml version="1.0" encoding="UTF-8"?>
<svg width="43px" height="12px" viewBox="0 0 43 12" version="1.1" xmlns="http://www.w3.org/2000/svg" xmlns:xlink="http://www.w3.org/1999/xlink">
    <g id="Symbols" stroke="none" stroke-width="1" fill="none" fill-rule="evenodd">
        <g id="Back-To-Next_XS" transform="translate(-47.000000, -21.000000)" fill="#FFFFFF">
            <g id="Next-Logo" transform="translate(47.000000, 21.000000)">
                <path d="M39.2862397,11.9128369 C37.8896486,11.9128369 36.8197349,11.5572819 36.1069404,10.8560385 C35.3694796,10.130971 35.0406363,9.10858493 35.0406363,7.54113489 L35.0406363,1.50990331e-14 L35.8085389,1.50990331e-14 L35.8085389,1.04368325 L41.4421904,1.04368325 L41.4421904,1.71147689 L35.8085389,1.71147689 L35.8085389,7.54113489 C35.8085389,8.94807381 36.0801083,9.77782245 36.7460971,10.4050672 C37.3205199,10.9541018 38.1994808,11.244923 39.2862397,11.244923 C39.9841141,11.244923 40.9833981,11.1189446 41.8855813,10.5393478 L42.3118863,11.0575798 C41.4689022,11.6178045 40.4281067,11.9128369 39.2862397,11.9128369" id="Fill-1"></path>
                <path d="M16.8093887,1.47263538 C14.3218273,1.47263538 12.6089065,3.10505994 12.3393826,5.73303848 L12.314596,5.97476775 L21.3107991,5.97476775 L21.2920287,5.73821238 C21.091089,3.1868797 19.2896104,1.47263538 16.8093887,1.47263538 M16.8093887,11.9129573 C15.2820062,11.9129573 13.9665129,11.3873856 13.0048901,10.3930349 C12.0334008,9.38845664 11.5197411,8.00197266 11.5197411,6.3841072 C11.5197411,3.04682352 13.6454907,0.804841741 16.8093887,0.804841741 C19.9312939,0.804841741 22.1116702,3.09374956 22.1116702,6.37099198 L22.1116702,6.6420801 L12.3094221,6.6420801 L12.326869,6.8777932 C12.5232364,9.53067864 14.2828426,11.244923 16.8093887,11.244923 C18.8072347,11.244923 20.1747077,10.4418861 20.9853249,8.79141303 L21.7829473,8.79141303 C20.9494686,10.7524402 19.1130962,11.9129573 16.8093887,11.9129573" id="Fill-2"></path>
                <polyline id="Fill-3" points="32.9845539 1.0439239 32.0644425 1.0439239 28.113631 5.73905464 24.1777395 1.06582271 23.2606362 1.06582271 27.6464161 6.29434611 23.1517437 11.635492 23.1517437 11.6737548 24.0828045 11.6737548 28.113631 6.86179022 32.1479468 11.6737548 33.1101713 11.6737548 28.5807255 6.30385164 32.9845539 1.0439239"></polyline>
                <path d="M9.41769518,5.90257384 L9.41769518,5.9018519 L9.41769518,5.89270734 L9.41769518,5.8919854 L9.41769518,5.28290947 C9.41769518,5.25595708 9.41769518,5.22707952 9.41757485,5.19735969 C9.41745453,4.91207344 9.40614415,4.64519663 9.38364372,4.39468377 C9.38207952,4.37723691 9.38027467,4.36027134 9.37859014,4.3429448 C9.37197237,4.27520285 9.3648733,4.20842349 9.356571,4.143088 C9.35512712,4.13213859 9.35368325,4.12142983 9.35235969,4.11060074 C9.22457647,3.13201233 8.9028323,2.42186494 8.35127085,1.87968869 C8.1626041,1.69403003 7.94806787,1.53339859 7.7099483,1.39635049 C7.10544466,1.03622321 6.28724704,0.80556368 5.17882992,0.80556368 C1.77260106,0.80556368 0.734693328,3.04501868 0.734693328,3.04501868 C0.743717566,2.43678501 0.756471823,1.33197759 0.756471823,1.33197759 L1.62536651e-13,1.33197759 L1.62536651e-13,11.6737548 L0.756471823,11.6737548 L0.756471823,5.67624594 L0.760322165,5.32321774 C0.760322165,5.32321774 0.652993889,3.286026 2.51776251,2.13934611 C2.53557034,2.12851703 2.55229526,2.116966 2.57046406,2.10625724 C2.57046406,2.10625724 2.64097344,2.06739285 2.67526555,2.04669727 C3.29926155,1.70293394 4.12588179,1.47684669 5.22058207,1.47263538 L5.23381762,1.47371829 C6.28508123,1.49248871 7.13624739,1.78198627 7.69923954,2.31249117 C8.37449322,2.93997654 8.64991297,3.76960486 8.64991297,5.17654378 L8.64991297,11.0063221 L8.64979265,11.0242503 L8.64979265,11.6737548 L9.41769518,11.6737548 L9.41769518,5.90257384" id="Fill-5"></path>
            </g>
        </g>
    </g>
</svg>