<?xml version="1.0" encoding="UTF-8"?>
<svg width="19px" height="23px" viewBox="0 0 19 23" version="1.1" xmlns="http://www.w3.org/2000/svg" xmlns:xlink="http://www.w3.org/1999/xlink">
    <!-- Generator: Sketch 57.1 (83088) - https://sketch.com -->
    <title>basket</title>
    <desc>Created with Sketch.</desc>
    <g id="Assets" stroke="none" stroke-width="1" fill="none" fill-rule="evenodd">
        <g id="icon-sprite" transform="translate(-4.000000, -3.000000)" fill="#333031" fill-rule="nonzero">
            <g id="basket" transform="translate(2.700000, 2.000000)">
                <path d="M14.25,6.79545455 L14.25,4.70454545 C14.25,2.09090909 12.1388889,0 9.5,0 C6.86111111,0 4.75,2.09090909 4.75,4.70454545 L4.75,6.79545455 L0,6.79545455 L1.05555556,20.9090909 C1.05555556,22.0590909 2.00555556,23 3.16666667,23 L15.8333333,23 C16.9944444,23 17.9444444,22.0590909 17.9444444,20.9090909 L19,6.79545455 L14.25,6.79545455 Z M6.33333333,4.70454545 C6.33333333,2.97954545 7.75833333,1.56818182 9.5,1.56818182 C11.2416667,1.56818182 12.6666667,2.97954545 12.6666667,4.70454545 L12.6666667,6.79545455 L6.33333333,6.79545455 L6.33333333,4.70454545 Z M5.80555556,10.4545455 C5.225,10.4545455 4.75,9.98409091 4.75,9.40909091 C4.75,8.83409091 5.225,8.36363636 5.80555556,8.36363636 C6.38611111,8.36363636 6.86111111,8.83409091 6.86111111,9.40909091 C6.86111111,9.98409091 6.38611111,10.4545455 5.80555556,10.4545455 Z M13.1944444,10.4545455 C12.6138889,10.4545455 12.1388889,9.98409091 12.1388889,9.40909091 C12.1388889,8.83409091 12.6138889,8.36363636 13.1944444,8.36363636 C13.775,8.36363636 14.25,8.83409091 14.25,9.40909091 C14.25,9.98409091 13.775,10.4545455 13.1944444,10.4545455 Z" id="Shape"></path>
            </g>
        </g>
    </g>
</svg>