<?xml version="1.0" encoding="UTF-8"?>
<svg width="44px" height="44px" viewBox="0 0 44 44" version="1.1" xmlns="http://www.w3.org/2000/svg" xmlns:xlink="http://www.w3.org/1999/xlink">
    <!-- Generator: Sketch 57.1 (83088) - https://sketch.com -->
    <title>favourites-inactive-icon</title>
    <desc>Created with Sketch.</desc>
    <g id="favourites-inactive-icon" transform="translate(0,4)" stroke="none" stroke-width="1" fill="none" fill-rule="evenodd">
        <g id="heart-outline-copy"  fill="#333031" fill-rule="nonzero">
            <path d="M16.3394424,0 C14.5256181,0.000774645095 12.7860644,0.730972691 11.5019761,2.0305857 C10.2161178,0.731522178 8.47575476,0.00150504434 6.66105977,0 C5.67896153,0 4.72676325,0.210002596 3.82861486,0.623585877 C0.574120715,2.12391902 -0.713876968,5.43200194 0.384371057,9.47275144 C1.36646929,13.0841677 5.66171156,18.414667 10.8901772,20.7299167 L11.5002511,21 L12.110325,20.7299167 C17.3382156,18.414667 21.6334578,13.0841677 22.6155561,9.47275144 C23.7138041,5.43200194 22.4263814,2.12391902 19.1713123,0.623585877 C18.2824505,0.211823541 17.3165874,-0.000861392537 16.3394424,0 M16.3394424,1.75000044 C17.072566,1.75000044 17.7855648,1.90691905 18.4583135,2.21725235 C19.898686,2.8810856 22.1383069,4.64566871 20.9526591,9.0072515 C20.0775106,12.2266678 16.0783928,17.0280838 11.5002511,19.0901669 C6.9215343,17.0280838 2.92241649,12.2266678 2.04726807,9.0072515 C0.862770196,4.64566871 3.10181617,2.8810856 4.54161358,2.21725235 C5.2067663,1.90872761 5.92968112,1.74935489 6.66105977,1.75000044 C8.00770734,1.75000044 9.32905497,2.304169 10.2847032,3.27075221 L11.5037011,4.50216873 L12.7209739,3.26900221 C13.6833198,2.29966335 14.9833248,1.75393319 16.3394424,1.75000044" id="Shape"></path>
        </g>
    </g>
</svg>