<?xml version="1.0" encoding="UTF-8"?>
<svg width="225px" height="20px" viewBox="0 0 225 20" version="1.1" xmlns="http://www.w3.org/2000/svg" xmlns:xlink="http://www.w3.org/1999/xlink">
    <!-- Generator: Sketch 57.1 (83088) - https://sketch.com -->
    <title>logo-large</title>
    <desc>Created with Sketch.</desc>
    <g id="Assets" stroke="none" stroke-width="1" fill="none" fill-rule="evenodd">
        <g id="logo---desktop" transform="translate(-2.000000, -2.000000)" fill-rule="nonzero">
            <g id="logo-large" transform="translate(2.000000, 2.000000)">
                <polygon id="Shape" fill="#F9D1C5" points="0 19.4140625 93 19.4140625 93 10.4140625 0 10.4140625"></polygon>
                <path d="M4,0.6230731 L14.4730719,0.6230731 L14.4730719,1.64624898 L5.15572366,1.64624898 L5.15572366,7.91752862 L13.0673825,7.91752862 L13.0673825,8.89598864 L5.15572366,8.89598864 L5.15572366,16.4130618 L4,16.4130618 L4,0.6230731 Z M21.3195338,0.6230731 L22.3169459,0.6230731 L29.1179729,16.4130618 L27.8936312,16.4130618 L25.6493315,11.2091931 L17.9646023,11.2091931 L15.7198124,16.4130618 L14.4729248,16.4130618 L21.3195338,0.6230731 Z M21.8179948,2.00205263 L18.2361336,10.275449 L25.331728,10.275449 L21.8179948,2.00205263 Z M42.8325112,12.1656318 C42.8325112,11.7506878 42.7570318,11.3463218 42.6055817,10.9534953 C42.4546223,10.5606689 42.2433767,10.2125583 41.970865,9.90820189 C41.6988437,9.6048072 41.3778091,9.36343767 41.0072718,9.18553585 C40.6372245,9.00763404 40.2402203,8.91868315 39.8177293,8.91868315 L33.2882336,8.91868315 L33.2882336,15.3899821 L39.6584374,15.3899821 C40.1122967,15.3899821 40.5318468,15.3010312 40.9170882,15.1231294 C41.3023292,14.9452275 41.6346368,14.7043389 41.9145002,14.4004633 C42.1938736,14.0970686 42.4163923,13.7523237 42.583036,13.3662287 C42.7491894,12.9810953 42.8325112,12.5805758 42.8325112,12.1656318 Z M33.2882336,1.64634515 L33.2882336,7.96234064 L39.1830125,7.96234064 C39.6206975,7.96234064 40.0216228,7.87338971 40.3843181,7.69548789 C40.7470134,7.51758607 41.0606959,7.28390964 41.3248753,6.99493939 C41.589545,6.70596911 41.7973596,6.36843649 41.9483189,5.98330307 C42.0992787,5.59768884 42.1752489,5.20438156 42.1752489,4.80434289 C42.1752489,4.37449362 42.1031997,3.97012759 41.9600823,3.59220642 C41.8159843,3.21428526 41.6194428,2.88059913 41.3704574,2.59162888 C41.1209818,2.30217781 40.822003,2.0728287 40.4745017,1.90213912 C40.1270006,1.73193035 39.7412692,1.64634515 39.3187782,1.64634515 L33.2882336,1.64634515 Z M43.9887253,12.3209352 C43.9887253,12.8993566 43.8755053,13.4369086 43.6485757,13.9335912 C43.4221365,14.4302739 43.1118847,14.8639697 42.7192916,15.2346786 C42.3262083,15.6049067 41.8649971,15.8943578 41.3361484,16.1020702 C40.8072993,16.3093018 40.2485525,16.413158 39.6584374,16.413158 L32.13251,16.413158 L32.13251,0.623169263 L39.6363817,0.623169263 C40.1951285,0.623169263 40.7014313,0.741930749 41.1548005,0.978972905 C41.6086601,1.2169767 41.993901,1.52373713 42.3115045,1.90213912 C42.6286177,2.28006028 42.8741724,2.71039037 43.0476778,3.19216773 C43.2216736,3.6739451 43.3089165,4.15956899 43.3089165,4.64855857 C43.3089165,5.44911681 43.104533,6.18332243 42.6967459,6.85021384 C42.2884685,7.51758607 41.7213894,8.00705648 40.9964891,8.31814427 C41.9179312,8.58499701 42.6472428,9.0855262 43.1839339,9.819251 C43.720625,10.5529758 43.9887253,11.3871911 43.9887253,12.3209352 Z M47.7064993,16.413158 L47.7064993,0.623169263 L48.8622226,0.623169263 L48.8622226,15.3899821 L58.4746287,15.3899821 L58.4746287,16.413158 L47.7064993,16.413158 Z M72.1669642,15.3899821 L72.1669642,16.413158 L61.4444169,16.413158 L61.4444169,0.623169263 L71.9630706,0.623169263 L71.9630706,1.64634515 L62.6001407,1.64634515 L62.6001407,7.8507914 L70.7843108,7.8507914 L70.7843108,8.82925141 L62.6001407,8.82925141 L62.6001407,15.3899821 L72.1669642,15.3899821 Z M87.7185053,8.49614225 C87.7185053,7.50325779 87.5748976,6.58730379 87.2876822,5.74924199 C87.0004668,4.91214176 86.5814067,4.18947573 86.0300119,3.58124383 C85.4781268,2.97349274 84.801749,2.4989276 84.0008785,2.15754844 C83.1995181,1.81665008 82.2775857,1.64644131 81.2345916,1.64644131 L77.0410499,1.64644131 L77.0410499,15.3900783 L81.2345916,15.3900783 C82.2927797,15.3900783 83.2259852,15.2165038 84.0346977,14.8674315 C84.8434101,14.519321 85.5197879,14.0336971 86.0638306,13.4110407 C86.6073834,12.7883843 87.0190915,12.0580252 87.2994452,11.2204442 C87.5788186,10.3828632 87.7185053,9.4746023 87.7185053,8.49614225 Z M75.8848362,16.4132541 L75.8848362,0.623265426 L81.2345916,0.623265426 C82.5045156,0.623265426 83.6190682,0.831458638 84.5787404,1.2459218 C85.5384126,1.6613466 86.335852,2.22438182 86.9705691,2.93646992 C87.6052857,3.64807721 88.0812006,4.48181169 88.3988041,5.4381542 C88.7159177,6.39449667 88.8747194,7.41382605 88.8747194,8.49614225 C88.8747194,9.69673916 88.6968027,10.7833827 88.3419494,11.7536689 C87.9866057,12.7253975 87.4768721,13.5552854 86.8117673,14.2447752 C86.1466626,14.9342649 85.3418711,15.4679704 84.3978829,15.8458916 C83.4529148,16.2238127 82.3986477,16.4132541 81.2345916,16.4132541 L75.8848362,16.4132541 Z M99.6457936,13.3594335 C99.3257401,13.3594335 99.0456975,13.2927155 98.8056574,13.1592773 C98.5656172,13.0258392 98.376255,12.838767 98.2375654,12.598055 L98.2375654,13.2809409 L97.1253849,13.2809409 L97.1253849,7.55097891 L98.4055925,7.55097891 L98.4055925,9.83511445 C98.5442825,9.59963538 98.7296438,9.41517955 98.9616828,9.28174141 C99.1937213,9.14830327 99.4670963,9.0815852 99.7818157,9.0815852 C100.048527,9.0815852 100.293898,9.13783768 100.517935,9.25034436 C100.741973,9.362851 100.934002,9.51591013 101.094028,9.70952624 C101.254055,9.90314236 101.379408,10.1320769 101.470089,10.3963368 C101.560771,10.6605966 101.606111,10.941859 101.606111,11.2401325 C101.606111,11.538406 101.556771,11.8170521 101.458088,12.076079 C101.359404,12.335106 101.22205,12.560116 101.046021,12.7511157 C100.869991,12.9421153 100.66196,13.0912498 100.42192,13.1985237 C100.181879,13.3057974 99.9231732,13.3594335 99.6457936,13.3594335 Z M99.2857352,12.299783 C99.4350934,12.299783 99.5711143,12.2723109 99.6938012,12.2173658 C99.8164885,12.1624207 99.9218381,12.0878534 100.009853,11.9936618 C100.097867,11.8994702 100.167211,11.7882733 100.217887,11.6600681 C100.268562,11.5318628 100.293899,11.3918857 100.293899,11.2401325 C100.293899,11.0936122 100.269895,10.9536351 100.221887,10.820197 C100.173879,10.6867588 100.108536,10.5703292 100.025855,10.4709048 C99.9431748,10.3714802 99.8431594,10.2929884 99.7258066,10.2354269 C99.6084538,10.1778653 99.4831014,10.149085 99.3497455,10.149085 C99.1470452,10.149085 98.9616836,10.2171112 98.7936553,10.3531658 C98.6256274,10.4892204 98.4962745,10.659286 98.4055925,10.8633679 L98.4055925,11.7267868 C98.49094,11.9047043 98.6149588,12.0446815 98.777653,12.1467224 C98.9403468,12.2487633 99.1097058,12.299783 99.2857352,12.299783 Z M102.126963,13.9010327 C102.233647,13.9376628 102.333663,13.9638267 102.427011,13.9795253 C102.52036,13.9952239 102.604373,14.0030731 102.679052,14.0030731 C102.833745,14.0030731 102.953763,13.9507452 103.039111,13.8460879 C103.124458,13.7414305 103.201803,13.5530501 103.271149,13.2809409 L101.670889,9.16007783 L102.991103,9.16007783 L103.967261,12.2055919 L104.807397,9.16007783 L106.007592,9.16007783 L104.407332,13.9481283 C104.295314,14.2882647 104.095283,14.5642944 103.807235,14.7762255 C103.519187,14.9881567 103.177802,15.0941207 102.783069,15.0941207 C102.676385,15.0941207 102.568368,15.0849633 102.459017,15.0666482 C102.349665,15.0483332 102.238981,15.0182446 102.126963,14.9763817 L102.126963,13.9010327 Z M142.08261,6.36978276 L146.57366,4.24842374 L146.57366,5.96205103 C146.57366,6.04378968 146.656492,5.96205103 146.656492,5.96205103 L146.739814,5.88031234 C146.906457,5.63557714 147.155933,5.30910325 147.239255,5.30910325 C148.569464,3.75895332 150.482437,4.49363976 150.482437,4.49363976 L149.650689,7.51220095 C149.318381,7.34920439 148.320479,7.34920439 148.320479,7.34920439 C146.490338,7.51220095 146.57366,9.06235087 146.57366,9.06235087 C146.57366,9.06235087 146.656492,14.3652676 146.656492,14.2840097 C146.656492,15.3446892 146.739814,16.0788949 146.739814,16.0788949 L142.08261,16.0788949 C142.332086,15.4259471 142.332086,14.2840097 142.332086,14.2840097 L142.332086,9.06235087 C142.332086,7.26746575 142.08261,6.36978276 142.08261,6.36978276 Z M205.788814,6.36978276 L210.279374,4.24842374 L210.279374,5.96205103 C210.279374,6.04378968 210.362696,6.04378968 210.362696,6.04378968 C210.446018,5.96205103 210.446018,5.88031234 210.52934,5.88031234 C210.612171,5.63557714 210.861647,5.30910325 210.944969,5.30910325 C212.275178,3.75895332 214.188641,4.49363976 214.188641,4.49363976 L213.356402,7.51220095 C213.107417,7.34920439 212.026193,7.34920439 212.026193,7.34920439 C210.279374,7.51220095 210.362696,9.06235087 210.362696,9.06235087 L210.362696,14.2840097 C210.362696,15.3446892 210.446018,16.0788949 210.446018,16.0788949 L205.871646,16.0788949 C206.03829,15.5076858 206.03829,14.2840097 206.03829,14.2840097 L206.03829,9.06235087 C206.03829,7.26746575 205.788814,6.36978276 205.788814,6.36978276 Z M160.878362,11.9994138 C162.209062,16.1603932 166.367315,13.6313024 166.367315,13.6313024 L166.367315,15.5074454 C163.290286,16.9763375 160.545565,16.1603932 160.462243,16.0786545 C155.721718,14.6102432 156.303991,9.7963161 156.303991,9.7963161 C157.052417,3.75919373 162.54186,4.57513802 162.54186,4.57513802 C167.698014,4.9011311 167.698014,10.12279 167.698014,10.12279 L160.878362,11.9994138 Z M160.628887,10.2862673 L163.705915,9.47032302 C163.705915,9.47032302 163.539762,6.37002318 161.959587,6.5330197 C161.959587,6.5330197 160.545565,6.45128102 160.545565,9.38858434 C160.545565,9.38858434 160.462243,10.12279 160.628887,10.2862673 Z M218.180348,11.9994138 C219.511048,16.0786545 223.6693,13.6313024 223.6693,13.6313024 L223.6693,15.5074454 C220.50895,16.9763375 217.84755,16.1603932 217.764229,16.0786545 C213.023703,14.6102432 213.605976,9.7963161 213.605976,9.7963161 C214.354403,3.75919373 219.843845,4.57513802 219.843845,4.57513802 C225,4.9011311 225,10.12279 225,10.12279 L218.180348,11.9994138 Z M217.930872,10.2862673 L221.008391,9.47032302 C221.008391,9.47032302 220.841747,6.37002318 219.261572,6.5330197 C219.261572,6.5330197 217.84755,6.45128102 217.84755,9.38858434 C217.84755,9.38858434 217.764229,10.12279 217.930872,10.2862673 Z M115.718534,4.49344743 L115.718534,6.36959043 C116.716436,4.98291784 118.379933,4.73818264 118.379933,4.73818264 C121.623605,4.16697355 122.205388,6.36959043 122.205388,6.36959043 C123.702732,4.41170875 125.86469,4.65644395 125.86469,4.65644395 C128.941718,4.49344743 128.692733,7.75674383 128.692733,7.75674383 L128.692733,14.2838174 C128.692733,15.4262356 128.941718,16.0787026 128.941718,16.0787026 L124.450668,16.0787026 C124.617312,15.6709708 124.617312,14.2838174 124.617312,14.2838174 L124.617312,9.06215855 C124.783956,7.59374727 123.868885,7.51200863 123.868885,7.51200863 C122.870983,7.43075075 122.538186,8.16495637 122.538186,8.16495637 C122.205388,8.49094945 122.205388,9.79636417 122.205388,9.79636417 C122.205388,9.79636417 122.122066,14.2838174 122.205388,14.2838174 C122.205388,15.0997617 122.454864,16.0787026 122.454864,16.0787026 L117.964304,16.0787026 C118.047135,15.6709708 118.130458,14.2838174 118.130458,14.2838174 L118.130458,9.06215855 C118.213779,7.51200863 117.132555,7.59374727 117.132555,7.59374727 C116.217975,7.43075075 115.801855,8.40969158 115.801855,8.49094945 C115.718534,8.98090067 115.718534,9.79636417 115.718534,9.79636417 L115.718534,14.2838174 C115.718534,15.7522287 115.885177,16.0787026 115.885177,16.0787026 L111.394127,16.0787026 C111.643603,15.2627583 111.643603,14.2838174 111.643603,14.2838174 L111.643603,8.24669506 C111.643603,7.26727342 111.394127,6.36959043 111.394127,6.36959043 L115.718534,4.49344743 Z M185.911298,0.4140625 L185.911298,14.284154 C185.99462,15.6708266 186.161264,16.0790391 186.161264,16.0790391 L181.50406,16.0790391 C181.670214,15.5895687 181.670214,14.284154 181.670214,14.284154 L181.670214,4.33030665 C181.670214,3.10663061 181.337416,2.69841805 181.337416,2.69841805 C181.337416,2.69841805 185.99462,0.4140625 185.911298,0.4140625 Z M154.807285,4.24861606 L154.807285,14.2842021 C154.807285,15.0179269 154.973438,16.0786064 154.973438,16.0786064 L150.316234,16.0786064 C150.56571,15.7521325 150.56571,14.2842021 150.56571,14.2842021 L150.56571,6.20697856 L154.807285,4.24861606 Z M150.149639,2.45377901 C150.149639,1.3930995 151.230864,0.495897338 152.644885,0.495897338 C153.975585,0.495897338 155.056809,1.3930995 155.056809,2.45377901 C155.056809,3.51445852 153.975585,4.41166068 152.644885,4.41166068 C151.230864,4.41166068 150.149639,3.51445852 150.149639,2.45377901 Z M130.938405,5.14615479 C130.938405,5.14615479 133.43316,3.7590014 136.842986,5.0644161 C136.842986,5.14615479 138.34033,5.6356252 139.088756,8.40945119 L140.336134,13.7128487 C140.336134,13.7128487 140.502288,14.4470544 141.417358,14.2840578 L141.417358,16.078943 C141.417358,16.078943 138.755469,16.6496712 137.092952,15.0995213 C137.092952,15.0995213 134.181587,17.6290929 130.938405,15.2629987 C130.938405,15.18126 128.193684,13.1416396 130.938405,10.286075 C131.021237,10.286075 131.852985,9.14365681 134.930504,8.81766373 C134.930504,8.81766373 135.013336,5.30915135 130.938405,6.85930127 L130.938405,5.14615479 Z M136.260713,13.7941066 L135.345643,10.3678137 C135.345643,10.3678137 133.516482,10.7755454 133.765958,12.7339079 C133.765958,12.7339079 133.765958,14.1210613 135.179489,14.2023191 C135.179489,14.2023191 136.011238,14.1210613 136.260713,13.7941066 Z M188.24039,5.0644161 C188.24039,5.0644161 190.735146,3.67774354 194.06214,5.0644161 C194.06214,5.0644161 195.642315,5.6356252 196.390742,8.32819332 C196.30742,8.40945119 197.638119,13.7128487 197.638119,13.7128487 C197.638119,13.7128487 197.721441,14.4470544 198.719344,14.2023191 L198.719344,15.9972043 C198.719344,15.9972043 195.974622,16.6496712 194.311616,15.0182635 C194.311616,15.0182635 191.400741,17.5473542 188.24039,15.18126 C188.24039,15.0995213 185.412347,13.059901 188.24039,10.286075 C188.323712,10.286075 189.071649,9.14365681 192.232489,8.73592508 C192.149167,8.73592508 192.232489,5.30915135 188.24039,6.77804339 L188.24039,5.0644161 Z M193.562699,13.7128487 L192.564796,10.3678137 C192.564796,10.3678137 190.818467,10.6938067 190.985111,12.6521692 C190.985111,12.6521692 190.985111,14.0393226 192.481474,14.2023191 C192.481474,14.2023191 193.313713,14.1205805 193.562699,13.7128487 Z M203.958967,4.24861606 L203.958967,14.2842021 C203.958967,15.0179269 204.208443,16.0786064 204.208443,16.0786064 L199.467917,16.0786064 C199.717393,15.7521325 199.717393,14.2842021 199.717393,14.2842021 L199.717393,6.20697856 L203.958967,4.24861606 Z M199.384595,2.45377901 C199.384595,1.3930995 200.46582,0.495897338 201.796519,0.495897338 C203.210541,0.495897338 204.291765,1.3930995 204.291765,2.45377901 C204.291765,3.51445852 203.210541,4.41166068 201.796519,4.41166068 C200.46582,4.41166068 199.384595,3.51445852 199.384595,2.45377901 Z M180.422738,5.0644161 L180.422738,7.0227786 C180.422738,7.0227786 176.846268,5.14615479 176.097842,9.06191812 C176.097842,9.06191812 175.598891,11.3467545 177.012912,13.1416396 C177.012912,13.1416396 178.176968,15.0995213 180.672213,13.9575839 L180.672213,15.9154656 C180.672213,15.9154656 177.179066,17.1391417 174.600988,15.7524691 C174.517667,15.7524691 170.858365,13.8758453 172.022421,8.98066029 C172.022421,8.98066029 172.688016,4.8196809 177.345709,4.57494569 C177.511863,4.57494569 179.341514,4.57494569 180.422738,5.0644161 Z" id="Shape" fill="#333031"></path>
            </g>
        </g>
    </g>
</svg>