<?xml version="1.0" encoding="UTF-8"?>
<svg width="86px" height="32px" viewBox="0 0 86 32" version="1.1" xmlns="http://www.w3.org/2000/svg" xmlns:xlink="http://www.w3.org/1999/xlink">
    <!-- Generator: Sketch 57.1 (83088) - https://sketch.com -->
    <title>logo-small</title>
    <desc>Created with Sketch.</desc>
    <g id="Assets" stroke="none" stroke-width="1" fill="none" fill-rule="evenodd">
        <g id="logo-mobile" transform="translate(-1.000000, -4.000000)" fill-rule="nonzero">
            <g id="logo-small" transform="translate(1.000000, 4.000000)">
                <g id="Group">
                    <polygon id="Rectangle-path" fill="#F8C1AF" points="0 9.41176471 86 9.41176471 86 17.8823529 0 17.8823529"></polygon>
                    <path d="M2.83516484,14.9110177 L2.83516484,0.00164143303 L12.6160378,0.00164143303 L12.6160378,0.968662488 L3.90766918,0.968662488 L3.90766918,6.87066892 L11.3143659,6.87066892 L11.3143659,7.77866989 L3.90766918,7.77866989 L3.90766918,14.9110177 L2.83516484,14.9110177 Z M19.0327304,0.00164143303 L19.9494008,0.00164143303 L26.3248433,14.9110177 L25.1790053,14.9110177 L23.0798302,9.98965234 L15.8931344,9.98965234 L13.7939592,14.9110177 L12.6160378,14.9110177 L19.0327304,0.00164143303 Z M22.7864956,9.1134314 L19.4910657,1.30462285 L16.1406354,9.1134314 L22.7864956,9.1134314 Z M40.230733,11.0474735 C40.2353863,11.5709185 40.1275839,12.089357 39.9144817,12.5683751 C39.4947414,13.5071644 38.7170014,14.2432733 37.7511396,14.6159174 C37.2524852,14.8126323 36.7203755,14.9128079 36.1836333,14.9110413 L29.1436048,14.9110413 L29.1436048,0.00164143303 L36.1607165,0.00164143303 C36.655052,-0.00414431986 37.143158,0.111269371 37.5815557,0.337601799 C37.9968477,0.554316442 38.3645248,0.850614542 38.6632267,1.20928275 C38.9634229,1.5712633 39.1962171,1.98325521 39.3507295,2.42600407 C39.5103941,2.86273028 39.5925786,3.3235257 39.5936471,3.78800556 C39.6088577,4.53273994 39.4101728,5.26643179 39.0207281,5.90364787 C38.650844,6.5140817 38.0935541,6.99133185 37.430305,7.26564935 C38.2566583,7.49441651 38.9794257,7.99572899 39.4790633,8.68667087 C39.977942,9.37378515 40.2413817,10.2011819 40.230733,11.0474735 Z M30.2252758,0.968662488 L30.2252758,6.92968898 L35.7252981,6.92968898 C36.1157214,6.93538544 36.5020022,6.84983861 36.8528026,6.67998871 C37.1850411,6.51704347 37.4823114,6.29195979 37.7282228,6.01714799 C37.9809864,5.73755358 38.1798328,5.4144065 38.314892,5.06374695 C38.4517891,4.70846121 38.5231992,4.33172157 38.5257739,3.95144574 C38.5278437,3.55975184 38.4595561,3.17081167 38.3240587,2.80282448 C38.1970067,2.45901941 38.0109354,2.13954595 37.7740564,1.85850346 C37.5425978,1.58718394 37.257045,1.36615748 36.935303,1.20928275 C36.5984001,1.0472495 36.2281283,0.964881675 35.8536319,0.968662488 L30.2252758,0.968662488 Z M39.1490744,10.8976533 C39.1501559,10.5052415 39.0786994,10.115948 38.9382278,9.74903203 C38.8016637,9.3875214 38.5997556,9.05367775 38.3423921,8.763851 C38.0862547,8.47801619 37.7744615,8.24638273 37.4257217,8.08285021 C37.0791284,7.914447 36.6980102,7.82744796 36.3119672,7.82859845 L30.2252758,7.82859845 L30.2252758,13.9439967 L36.1836333,13.9439967 C36.59176,13.9500772 36.9959971,13.8647176 37.3661381,13.6942963 C37.7153518,13.5295355 38.0271963,13.2963196 38.2828085,13.0087556 C38.5453313,12.7210321 38.7561586,12.3908912 38.9061443,12.0326546 C39.0645473,11.6747324 39.1472204,11.2884526 39.1490744,10.8976533 Z M43.7094971,14.9110177 L43.7094971,0.00164143303 L44.7865848,0.00164143303 L44.7865848,13.9439967 L53.7791213,13.9439967 L53.7791213,14.9110177 L43.7094971,14.9110177 Z M66.5804232,13.9439967 L66.5804232,14.9110177 L56.5520491,14.9110177 L56.5520491,0.00164143303 L66.3925057,0.00164143303 L66.3925057,0.968662488 L57.6337202,0.968662488 L57.6337202,6.81164886 L65.2879179,6.81164886 L65.2879179,7.71964985 L57.6337202,7.71964985 L57.6337202,13.9439967 L66.5804232,13.9439967 Z M70.0591872,14.9110177 L70.0591872,0.00164143303 L75.0596241,0.00164143303 C76.1328182,-0.0203632479 77.1988924,0.179084708 78.1900535,0.587302069 C79.0434074,0.951386812 79.8054488,1.49697558 80.4221458,2.18538381 C81.0257812,2.87391714 81.4811886,3.67724654 81.7604847,4.54618639 C82.0668968,5.47849765 82.221609,6.45316149 82.2188198,7.43362953 C82.234183,8.48063492 82.0651228,9.52227554 81.7192345,10.5117529 C81.4153451,11.3867878 80.928007,12.188242 80.2892286,12.8634754 C79.6544866,13.5203359 78.8857553,14.035715 78.0342195,14.3752971 C77.0921274,14.7439173 76.0861915,14.9259263 75.0733742,14.9110177 L70.0591872,14.9110177 Z M81.1233987,7.43362953 C81.1331121,6.55347196 80.9968545,5.67770713 80.7200638,4.84128671 C80.4688071,4.08602086 80.064904,3.38935074 79.5329756,2.79374447 C79.00826,2.208168 78.3606349,1.74331281 77.6354679,1.431743 C76.8148291,1.09675807 75.9332869,0.932935543 75.0458741,0.95050247 L71.1271082,0.95050247 L71.1271082,13.9439967 L75.0458741,13.9439967 C75.9558839,13.9673706 76.8604996,13.7986822 77.6996348,13.4491361 C78.4268284,13.1433948 79.0741731,12.6776157 79.5925592,12.0871346 C80.1077376,11.4685919 80.4954707,10.7559874 80.7338138,9.98965234 C80.9988487,9.16330493 81.1303332,8.30064969 81.1233987,7.43362953 Z M4.73725588,30.728395 C4.51684336,30.7339076 4.29880376,30.6822609 4.10475331,30.5785747 C3.92356565,30.4771346 3.77440391,30.3278117 3.67391824,30.1472743 L3.67391824,30.6693748 L2.83516484,30.6693748 L2.83516484,26.3064301 L3.80225209,26.3064301 L3.80225209,28.045252 C3.90050375,27.8699827 4.04457175,27.7241407 4.21933711,27.6230316 C4.40478621,27.522752 4.61306705,27.4711742 4.82433956,27.4732114 C5.01832201,27.4705701 5.21010188,27.5141688 5.3835085,27.6003315 C5.55043105,27.685414 5.69726552,27.8045558 5.81434357,27.9499119 C5.94103742,28.1049151 6.0374103,28.2819807 6.0985114,28.4720124 C6.16755963,28.679981 6.20162504,28.8977783 6.19934514,29.1166931 C6.1997852,29.3336388 6.16097737,29.5489073 6.08476134,29.7522939 C6.01483357,29.9414152 5.90904493,30.1155485 5.77309341,30.2653144 C5.64489675,30.4080941 5.48903042,30.5238882 5.31475822,30.6058148 C5.1332236,30.6868157 4.93635837,30.7286021 4.73725588,30.728395 Z M4.46683812,29.9202741 C4.57225737,29.9222861 4.67691266,29.9021719 4.77392269,29.8612539 C4.8632443,29.8184938 4.94399591,29.7600411 5.01225699,29.6887338 C5.07989573,29.6144596 5.13276667,29.5282016 5.16809096,29.4344935 C5.20698086,29.3329426 5.22716175,29.2253039 5.22767958,29.1166931 C5.22803169,29.0069258 5.20943003,28.8979069 5.1726743,28.7943528 C5.1389016,28.6991141 5.08933277,28.6101203 5.02600705,28.5310326 C4.96266319,28.4559112 4.88473302,28.3941567 4.79683945,28.3494323 C4.70807867,28.3075443 4.61099126,28.2858287 4.51267163,28.2858649 C4.35927574,28.2851342 4.210913,28.3400422 4.09558661,28.4402325 C3.96806792,28.5437861 3.86747737,28.6761195 3.80225209,28.8261329 L3.80225209,29.4844335 C3.8616265,29.6166458 3.9588301,29.7287144 4.08183655,29.8067739 C4.19647517,29.8805065 4.33015352,29.9199154 4.46683812,29.9202741 Z M6.61643015,31.1415354 C6.68913581,31.1685206 6.76436599,31.1882909 6.8410144,31.2005554 C6.9035036,31.2066269 6.96644263,31.2066269 7.02893183,31.2005554 C7.13412927,31.2056374 7.23574069,31.1620223 7.30393295,31.0825153 C7.39121877,30.9438294 7.45037759,30.7896206 7.47810032,30.6285148 L6.26809541,27.4913714 L7.26726613,27.4913714 L8.00060243,29.8113139 L8.63768832,27.4913714 L9.55435869,27.4913714 L8.34893715,31.1233754 C8.26534237,31.3754279 8.10528685,31.5958009 7.89060199,31.754436 C7.66594927,31.9164501 7.39383789,32.0009797 7.11601552,31.9950563 C7.03517968,32.0016479 6.95393369,32.0016479 6.87309786,31.9950563 C6.78831276,31.979266 6.70538076,31.954926 6.62559686,31.9224163 L6.61643015,31.1415354 Z M30.9219453,24.4858881 L30.9219453,24.4813481 L33.6994566,23.1556667 L33.6994566,24.2316479 C33.6994566,24.2815879 33.7498734,24.2316479 33.7498734,24.2316479 L33.8002903,24.1771678 C33.9057074,24.0273477 34.056958,23.8230474 34.1119582,23.8230474 C34.6102211,23.2612232 35.4052307,23.0593949 36.114883,23.3145668 L35.6015476,25.1986689 C35.3347595,25.1240243 35.0583005,25.0888376 34.7811276,25.0942488 C34.492742,25.0892797 34.2146904,25.2005669 34.0107401,25.4025884 C33.8067898,25.6046098 33.69444,25.8800317 33.6994566,26.1656899 C33.6994566,26.1656899 33.7498734,29.4798936 33.7498734,29.4254135 C33.7498734,30.0927943 33.8002903,30.5467947 33.8002903,30.5467947 L30.9219453,30.5467947 C31.0234166,30.1815145 31.0742991,29.8042685 31.0731959,29.4254135 L31.0731959,26.1656899 C31.0893809,25.6018205 31.0386158,25.0380204 30.9219453,24.4858881 Z M70.3250217,24.4858881 L70.3250217,24.4813481 L73.1025329,23.1556667 L73.1025329,24.2316479 C73.1025329,24.259229 73.1251053,24.2815879 73.1529497,24.2815879 C73.2033666,24.2316479 73.2033666,24.1771678 73.2537835,24.1771678 C73.3087837,24.0273477 73.4600344,23.8230474 73.5150345,23.8230474 C74.0132974,23.2612232 74.808307,23.0593949 75.5179593,23.3145668 L75.0046239,25.1986689 C74.7368106,25.1214223 74.4584382,25.0861889 74.1796206,25.0942488 C73.8995996,25.1001748 73.6335849,25.2167165 73.4407671,25.4179426 C73.2479492,25.6191687 73.1443243,25.8883856 73.1529497,26.1656899 L73.1529497,29.4254135 C73.1529497,30.0927943 73.2033666,30.5467947 73.2033666,30.5467947 L70.3754385,30.5467947 C70.4452982,30.1770719 70.4790651,29.8015462 70.4762723,29.4254135 L70.4762723,26.1656899 C70.4924572,25.6018205 70.4416922,25.0380204 70.3250217,24.4858881 Z M42.4078252,26.9284108 L44.3099162,26.4199302 C44.3099162,26.4199302 44.2044991,24.4858881 43.2282452,24.6039282 C43.2282452,24.6039282 42.352825,24.5539882 42.352825,26.3881502 C42.352825,26.3881502 42.3024081,26.8421507 42.4078252,26.9465708 L42.4078252,26.9284108 Z M42.5590758,27.999852 C43.3840791,30.5967347 45.9553396,29.0213531 45.9553396,29.0213531 L45.9553396,30.1926743 C44.8235512,30.7699907 43.5117122,30.8966853 42.288658,30.5467947 C39.3553128,29.6387937 39.7173976,26.6242304 39.7173976,26.6242304 C40.1757328,22.8560263 43.5765799,23.3645069 43.5765799,23.3645069 C46.7849262,23.5688071 46.7849262,26.8285306 46.7849262,26.8285306 L42.5453257,27.999852 L42.5590758,27.999852 Z M77.8325521,26.9284108 L79.7392265,26.4199302 C79.7392265,26.4199302 79.6338094,24.4858881 78.6575554,24.6039282 C78.6575554,24.6039282 77.7821351,24.5539882 77.7821351,26.3881502 C77.7821351,26.3881502 77.7317183,26.8421507 77.8325521,26.9465708 L77.8325521,26.9284108 Z M77.988386,27.999852 C78.8133893,30.5467947 81.3846498,29.0213531 81.3846498,29.0213531 L81.3846498,30.1926743 C80.2533994,30.771798 78.9408471,30.8985615 77.7179683,30.5467947 C74.784623,29.6387937 75.1467078,26.6242304 75.1467078,26.6242304 C75.6050431,22.8560263 79.0013068,23.3645069 79.0013068,23.3645069 C82.2096531,23.5688071 82.2096531,26.8285306 82.2096531,26.8285306 L77.9929694,27.999852 L77.988386,27.999852 Z M14.6143792,23.3145668 L14.6097959,23.3145668 L14.6097959,24.4677281 C15.0113699,23.9368511 15.5978172,23.5727766 16.2552192,23.446227 C18.2627273,23.1057266 18.6248122,24.4677281 18.6248122,24.4677281 C19.1447529,23.7528375 19.9961791,23.3491129 20.8844047,23.3962869 C22.791079,23.2964068 22.6352451,25.330329 22.6352451,25.330329 L22.6352451,29.4163335 C22.6246815,29.796067 22.6773308,30.1749312 22.791079,30.5377147 L20.0135678,30.5377147 C20.0869827,30.1684856 20.1207817,29.7926027 20.1144015,29.4163335 L20.1144015,26.1566099 C20.2198186,25.239529 19.6560663,25.1895889 19.6560663,25.1895889 C19.3216003,25.1398755 18.9915921,25.3033191 18.831063,25.5981894 C18.6293955,25.7979495 18.6293955,26.6151504 18.6293955,26.6151504 C18.6293955,26.6151504 18.5743953,29.4163335 18.6293955,29.4163335 C18.6413574,29.7942353 18.6920343,30.1699567 18.7806461,30.5377147 L16.0031348,30.5377147 C16.0535517,30.2834744 16.108552,29.4163335 16.108552,29.4163335 L16.108552,26.1566099 C16.1589688,25.1986689 15.4897995,25.248609 15.4897995,25.248609 C15.1151292,25.214464 14.7688285,25.4488648 14.6647961,25.8070295 C14.6309949,26.0781395 14.6141572,26.351061 14.6143792,26.6242304 L14.6143792,29.4254135 C14.5818392,29.8024429 14.6175387,30.1821986 14.7197964,30.5467947 L11.9422851,30.5467947 C12.0386917,30.1805116 12.0894861,29.8039191 12.0935357,29.4254135 L12.0935357,25.6572094 C12.0890078,25.2622896 12.0382518,24.8692228 11.9422851,24.4858881 L14.6143792,23.3145668 Z M58.0278885,20.7630841 L58.0278885,29.4254135 C58.03172,29.804233 58.0840832,30.1810386 58.1837224,30.5467947 L55.3053774,30.5467947 C55.3770087,30.1773158 55.4107913,29.8016163 55.4062112,29.4254135 L55.4062112,23.2101468 C55.4435146,22.8582692 55.371562,22.5034926 55.1999603,22.1931856 C55.1999603,22.1931856 58.0828887,20.7630841 58.0278885,20.7630841 Z M38.7915605,23.1556667 L38.7915605,29.4254135 C38.8026055,29.8008622 38.8362767,30.1753226 38.8923943,30.5467947 L36.0140493,30.5467947 C36.1295636,30.1844026 36.182254,29.8052428 36.1698833,29.4254135 L36.1698833,24.381468 L38.7915605,23.1556667 Z M35.9086322,22.0388254 C35.9086322,21.3759847 36.5778016,20.8175641 37.4532218,20.8175641 C38.2053785,20.749036 38.8725185,21.2943225 38.9473945,22.0388254 C38.8725185,22.7833284 38.2053785,23.328615 37.4532218,23.2600868 C36.5778016,23.2600868 35.9086322,22.7016661 35.9086322,22.0388254 Z M27.3194307,29.1212332 L26.7556784,26.9828908 C26.0883424,27.1427294 25.661075,27.7884976 25.7794245,28.4583925 C25.778813,28.9426598 26.1619814,29.3421804 26.6502614,29.3663935 C26.6502614,29.3663935 27.1681801,29.3164534 27.3194307,29.1121532 L27.3194307,29.1212332 Z M24.0285841,23.7186273 C25.1881138,23.1866124 26.5214069,23.168453 27.6952655,23.6686873 C27.6952655,23.7186273 28.6119359,24.0273477 29.0702711,25.7570895 L29.8402742,29.0576731 C29.8793693,29.194002 29.9727349,29.3087307 30.0989301,29.3755124 C30.2251253,29.4422942 30.3733061,29.4553903 30.5094436,29.4117935 L30.5094436,30.5331747 C30.5094436,30.5331747 28.8640203,30.8918351 27.8327661,29.924814 C26.7453295,30.8378496 25.1633234,30.8793857 24.0285841,30.0246941 C24.0285841,29.9747541 22.3327438,28.6990127 24.0285841,26.9147908 C24.0790009,26.9147908 24.5923363,26.20201 26.4990107,26.0067898 C26.4990107,26.0067898 26.5494276,23.8185074 24.0285841,24.7855284 L24.0285841,23.7186273 Z M62.762491,29.0576731 L62.1437385,26.9692709 C61.4892712,27.1144459 61.0616898,27.7388156 61.1674846,28.3948324 C61.1753728,28.9031733 61.5724725,29.3220848 62.0841549,29.3618534 C62.0841549,29.3618534 62.5974903,29.3119134 62.7533243,29.0576731 L62.762491,29.0576731 Z M59.4716443,23.6550672 C60.6120476,23.1285012 61.9291723,23.1285012 63.0695756,23.6550672 C63.0695756,23.6550672 64.0458295,24.0137276 64.5133314,25.6935294 C64.4583312,25.7434695 65.2833345,29.0576731 65.2833345,29.0576731 C65.2833345,29.0576731 65.3337514,29.5116736 65.952504,29.3618534 L65.952504,30.4832347 C65.952504,30.4832347 64.2520803,30.8918351 63.2024928,29.870334 C62.1336755,30.7802303 60.5674129,30.8237997 59.4487275,29.9747541 C59.4487275,29.924814 57.6978871,28.6490727 59.4487275,26.9147908 C59.4991444,26.9147908 59.9620629,26.20201 61.9145709,25.9477698 C61.864154,25.9477698 61.9145709,23.8094274 59.4487275,24.7265084 L59.4487275,23.6686873 L59.4716443,23.6550672 Z M69.1929337,23.1556667 L69.1929337,29.4254135 C69.2098401,29.8028964 69.2604545,30.1781553 69.3441844,30.5467947 L66.4154225,30.5467947 C66.5276197,30.1837547 66.5787198,29.804896 66.5666731,29.4254135 L66.5666731,24.376928 L69.1929337,23.1556667 Z M66.3650056,22.0388254 C66.4399142,21.2962553 67.1041437,20.7516772 67.8545949,20.8175641 C68.7300152,20.8175641 69.3991845,21.3759847 69.3991845,22.0388254 C69.3991845,22.7016661 68.7300152,23.2600868 67.8545949,23.2600868 C67.1041437,23.3259737 66.4399142,22.7813956 66.3650056,22.0388254 Z M54.6362081,23.6686873 L54.6362081,24.8899486 C54.6362081,24.8899486 52.4224491,23.7186273 51.9595305,26.1656899 C51.7980938,27.0557824 52.0027344,27.97286 52.5278662,28.7126327 C52.5278662,28.7126327 53.2474525,29.9384341 54.7874587,29.2211133 L54.7874587,30.4469146 C54.7874587,30.4469146 52.6287,31.2096354 51.0336934,30.3424945 C50.9832766,30.3424945 48.7420175,29.1711732 49.438687,26.1157499 C49.7415916,24.5436695 51.1141133,23.3962017 52.7295337,23.3645069 C53.3781604,23.354662 54.0235013,23.4576162 54.6362081,23.6686873 Z" id="Shape" fill="#333031"></path>
                </g>
            </g>
        </g>
    </g>
</svg>