<?xml version="1.0" encoding="UTF-8"?>
<svg width="24px" height="25px" viewBox="0 0 24 25" version="1.1" xmlns="http://www.w3.org/2000/svg" xmlns:xlink="http://www.w3.org/1999/xlink">
    <!-- Generator: Sketch 57.1 (83088) - https://sketch.com -->
    <title>search</title>
    <desc>Created with Sketch.</desc>
    <g id="Assets" stroke="none" stroke-width="1" fill="none" fill-rule="evenodd">
        <g id="b-outline-search" transform="translate(-1.000000, -1.000000)" fill="#333031" fill-rule="nonzero">
            <g id="search"  transform="scale(1.4)">
                <path d="M8.57142857,7.24352332 C9.07012987,6.52849741 9.35064935,5.62694301 9.35064935,4.66321244 C9.35064935,2.08290155 7.26233766,0 4.67532468,0 C2.08831169,0 0,2.08290155 0,4.66321244 C0,7.24352332 2.08831169,9.32642487 4.67532468,9.32642487 C5.64155844,9.32642487 6.54545455,9.04663212 7.29350649,8.51813472 L10.7220779,12 L12,10.7253886 L8.57142857,7.24352332 L8.57142857,7.24352332 Z M4.67532468,7.77202073 C2.96103896,7.77202073 1.55844156,6.37305699 1.55844156,4.66321244 C1.55844156,2.95336788 2.96103896,1.55440415 4.67532468,1.55440415 C6.38961039,1.55440415 7.79220779,2.95336788 7.79220779,4.66321244 C7.79220779,6.37305699 6.38961039,7.77202073 4.67532468,7.77202073 Z" id="Shape"></path>
            </g>
        </g>
    </g>
</svg>